<?xml version="1.0" standalone="no"?>
<!DOCTYPE svg PUBLIC "-//W3C//DTD SVG 20010904//EN"
 "http://www.w3.org/TR/2001/REC-SVG-20010904/DTD/svg10.dtd">
<svg version="1.0" xmlns="http://www.w3.org/2000/svg"
 width="512.000000pt" height="512.000000pt" viewBox="0 0 512.000000 512.000000"
 preserveAspectRatio="xMidYMid meet">
<metadata>
Created by potrace 1.16, written by Peter Selinger 2001-2019
</metadata>
<g transform="translate(0.000000,512.000000) scale(0.100000,-0.100000)"
fill="#000000" stroke="none">
<path d="M2394 4880 c-479 -34 -915 -197 -1294 -483 -196 -148 -426 -404 -563
-627 -66 -108 -170 -328 -212 -450 -47 -135 -90 -314 -112 -459 -27 -176 -24
-549 5 -737 119 -768 596 -1425 1277 -1759 164 -80 295 -129 461 -171 227 -57
330 -69 604 -69 274 0 377 12 604 69 912 231 1592 986 1738 1930 29 188 32
561 5 737 -22 145 -65 324 -112 459 -42 122 -146 342 -212 450 -183 296 -453
570 -748 755 -409 258 -946 390 -1441 355z m486 -125 c498 -75 942 -303 1291
-661 344 -354 547 -776 620 -1284 19 -131 16 -453 -5 -590 -100 -656 -443
-1197 -991 -1567 -388 -261 -914 -400 -1385 -364 -542 40 -1022 253 -1405 623
-369 355 -592 789 -671 1308 -21 137 -24 459 -5 590 76 530 298 972 667 1331
121 117 198 179 337 270 315 207 667 326 1067 363 87 8 376 -4 480 -19z"/>
<path d="M2390 4120 c-144 -18 -323 -62 -397 -95 -17 -8 -34 -15 -38 -15 -15
0 -183 -85 -245 -124 -320 -199 -562 -498 -685 -846 -171 -481 -99 -1033 188
-1456 72 -107 76 -111 192 -229 150 -152 277 -243 455 -328 241 -113 437 -157
705 -157 281 0 502 53 743 177 171 88 271 160 402 292 116 116 141 147 209
248 186 280 274 571 275 903 1 361 -102 682 -313 970 -243 332 -583 549 -1000
636 -129 27 -374 39 -491 24z m670 -333 c147 -51 306 -147 423 -256 51 -48 57
-61 28 -61 -10 0 -21 -7 -25 -15 -3 -8 -15 -15 -26 -15 -11 0 -20 -4 -20 -10
0 -16 -30 -12 -35 5 -3 8 -7 22 -10 30 -6 20 -26 10 -80 -39 -22 -20 -57 -51
-77 -68 -20 -18 -65 -60 -100 -92 -35 -32 -93 -84 -131 -114 -62 -50 -69 -53
-85 -39 -9 8 -26 17 -37 19 -18 3 -20 -3 -20 -45 0 -40 -4 -50 -26 -65 -15 -9
-41 -32 -60 -49 -18 -18 -39 -33 -46 -33 -7 0 -13 -4 -13 -9 0 -8 -74 -61 -85
-61 -3 0 -5 140 -5 311 0 293 1 311 18 316 15 4 21 21 29 92 16 141 39 161
191 161 59 0 64 2 80 30 20 35 27 36 112 7z m-915 -21 c15 -23 20 -24 90 -19
138 11 205 -50 205 -187 0 -53 2 -59 23 -62 l22 -3 3 -373 c2 -365 -1 -412
-29 -412 -18 0 -88 -60 -106 -91 l-17 -29 -363 0 -363 0 -10 25 c-9 24 -14 25
-84 25 l-75 0 -58 85 c-34 50 -68 89 -85 96 -14 6 -34 19 -43 29 -15 16 -15
23 0 80 9 34 20 69 25 78 5 10 31 64 60 122 134 275 371 495 680 628 91 39
104 40 125 8z m1519 -434 c29 -37 63 -86 75 -109 11 -23 25 -44 31 -48 5 -3
10 -13 10 -22 0 -9 16 -50 36 -91 34 -70 74 -175 74 -193 0 -5 -20 -20 -45
-34 -34 -21 -46 -34 -51 -60 -4 -21 -24 -51 -57 -84 l-51 -51 -68 0 c-64 0
-69 -2 -78 -25 l-10 -25 -373 0 -373 0 -37 44 c-20 25 -37 50 -37 56 0 6 23
25 50 42 28 17 50 34 50 38 0 4 26 26 58 48 32 23 64 48 72 56 23 29 49 16
129 -64 71 -72 125 -109 139 -96 3 3 -1 34 -8 68 -11 54 -19 69 -58 106 -25
23 -49 42 -54 42 -4 0 -8 10 -8 23 0 22 59 77 249 235 25 21 56 48 70 63 14
14 47 40 74 58 26 17 47 36 47 40 0 12 73 60 83 54 4 -2 31 -35 61 -71z
m-1436 -902 c90 0 93 -1 102 -25 5 -14 20 -39 32 -55 l22 -30 -29 -30 c-16
-16 -36 -30 -45 -30 -9 0 -39 -20 -66 -45 -27 -25 -53 -45 -59 -45 -16 0 -112
96 -128 130 -14 28 -33 58 -46 74 -12 15 -16 13 -37 -16 l-24 -32 22 -22 c13
-12 39 -41 58 -64 19 -23 42 -50 50 -59 8 -9 23 -26 33 -37 21 -25 24 -21 -69
-99 -32 -27 -80 -71 -106 -97 -26 -27 -49 -48 -51 -48 -5 0 -97 -83 -169 -152
-28 -27 -54 -48 -58 -48 -5 0 -12 -9 -15 -20 -3 -11 -12 -20 -20 -20 -7 0 -15
-7 -19 -15 -3 -8 -12 -15 -20 -15 -7 0 -16 -7 -20 -15 -4 -10 -20 -15 -49 -15
-39 0 -48 4 -70 34 -26 33 -47 82 -71 161 -7 22 -29 76 -51 120 -50 104 -51
109 -70 184 -15 58 -15 65 0 81 9 10 28 23 43 29 15 6 44 37 64 69 64 99 68
102 154 102 58 0 76 3 79 15 17 52 -6 49 278 42 144 -4 304 -7 355 -7z m1314
-22 c3 -21 10 -23 73 -28 74 -5 79 -7 136 -51 30 -24 37 -37 43 -78 7 -50 9
-52 79 -75 23 -7 22 -24 -9 -114 -40 -120 -157 -324 -238 -416 -109 -122 -242
-246 -266 -246 -9 0 -10 13 -5 49 8 58 -8 127 -38 159 -32 34 -76 28 -179 -23
-57 -28 -104 -45 -127 -45 -37 0 -102 27 -108 45 -2 6 22 36 52 68 45 46 55
63 55 91 0 29 -5 36 -37 51 -31 15 -44 16 -86 6 -26 -6 -73 -11 -103 -11 -50
0 -56 2 -75 33 -15 24 -19 42 -15 76 5 39 3 47 -29 82 l-35 39 0 120 c0 119 0
121 24 130 40 15 101 76 121 120 l18 40 373 0 373 0 3 -22z m-1062 -336 c0
-54 -3 -61 -35 -91 l-35 -32 6 -67 c8 -86 -2 -97 -79 -88 -161 19 -177 19
-197 1 -11 -10 -20 -29 -20 -42 0 -26 34 -85 74 -128 30 -33 27 -41 -28 -66
-63 -29 -114 -25 -170 14 -71 48 -88 57 -118 57 -37 0 -35 14 5 41 17 13 34
27 35 31 2 4 9 8 16 8 6 0 25 12 42 28 16 15 50 43 74 62 60 46 65 51 98 80
51 44 72 60 82 60 5 0 13 6 17 13 4 7 49 46 98 86 50 41 92 78 93 82 2 5 12 9
23 9 17 0 19 -8 19 -58z"/>
</g>
</svg>
